<svg version="1.1" xmlns="http://www.w3.org/2000/svg" xmlns:xlink="http://www.w3.org/1999/xlink" data-browser="Firefox[59.0]" preserveAspectRatio="xMidYMid meet" viewBox="0 0 359 197"><g class="logo__item" id="logo__item--business">
                <g class="logo__item__inner" transform="translate(1.5 156.0133095728686) scale(1.390811760040786 1.390811760040786) rotate(0 0 0)">
                    <text font-style="normal" font-weight="normal" letter-spacing="0" fill="#e22e2e" font-size="32px" font-family="'FingerPaint-Regular'" alignment-baseline="auto" dominant-baseline="auto" dy="">eBildungslabor</text>
                </g>
            </g><g id="logo__item--logo_0" class="logo__item">
    <g class="logo__item__inner" transform="translate(105.12193016650895 -14) scale(0.9908084896132324 0.9908084896132324) rotate(0 0 0)">
        
<g>
	<g>
		<path d="M53.5,94.4c-0.3,0-0.6,0-1,0c1,1.4,1.1,3,0.6,4.7c0.4-1,0.7-2,0.7-3C53.9,95.5,53.7,94.9,53.5,94.4z" fill="none"></path>
		<path d="M35,80.8l-2,2.8c0,0-2.4-20.8-2.8-24.8c-0.4-4,1.2-6,5.6-6.4c4-0.4,65.4-0.1,81.5,0c0.2-1.8-0.1-3.1-0.8-4    c-0.4-0.5-0.9-0.8-1.6-1.1c-9.7,0.1-28,0.4-43.3,0.7c-18.6,0.8-37.4,1.8-40.1,2.2c-2.4,0.3-4,1.1-4.9,2.4c-1,1.4-1.2,3.5-0.7,6.4    c1.1,5.9,3.9,24.3,4.3,27.3c1.9-0.4,3.9-0.7,6-0.8c9.6-0.6,16.4,1.8,19.1,6.5c1.6,0.1,3.4,0.3,5.1,0.5c-0.1-0.4-0.2-0.7-0.3-1.1    C56.6,80.8,35,80.8,35,80.8z" fill="none"></path>
		<path d="M36.5,88.1c-10.1,0.6-17.1,5.1-21.4,9c6.1-4.3,15.2-8,27.5-6.7c2.1,0.2,3.8,0.6,5.3,1.1c1.3,0,2.6,0,3.9,0.1    C49,88.9,43.5,87.6,36.5,88.1z" fill="none"></path>
		<path d="M121.8,47.2c-0.3,0-1.3,0-2.8,0c0.9,1.3,1.2,3,1,5.2c0.2,0,0.4,0,0.6,0c7.2,0,6.8,6.4,6.4,8.4    c-0.2,1.1-4.5,16.6-8.7,31.2c2.2-1.3,4.3-2.9,6.3-4.9c2.1-9.7,5.3-24.2,6.4-29.1C132.6,50.4,125.4,47.2,121.8,47.2z" fill="none"></path>
		<path d="M61,95.1c-1.6-0.2-3.2-0.4-4.7-0.5c0.1,0.5,0.3,1,0.3,1.5c0,3.3-1.8,6.7-5.2,9.7c-0.9,0.8-1.9,1.5-2.9,2.1    c5,1.1,11.1,2.5,17.4,3.9c-6.7-2.6-11.7-4.6-11.7-4.6S61.5,103.2,61,95.1z" fill="none"></path>
		<path d="M60.6,120.4c3.6,0,9.4,1.2,12.3,3.5c0.8-0.5,0.9-0.8,0.9-0.8c0,0,0,0,0,0c0-0.6-2.1-2.2-4.7-3.1    c-0.2-0.1-12-4.1-19.1,0.2c-1,0.6-1.5,1.2-1.2,1.7c0.2,0.4,0.7,0.9,1.3,1.3c0.5-0.3,1-0.4,1-0.4S55,120.4,60.6,120.4z" fill="none"></path>
		<path d="M74.5,126.1c-1.2,0.8-2.6,1.3-3.9,1.6c-7.2,2.1-17,0.9-21.8-2.1c0,0.6,0.2,1.4,0.6,2.3    c2,4.4,22,6.4,24.8,0.8C74.7,127.8,74.7,126.9,74.5,126.1z M69.8,125.1c1.5-0.5,2.5-0.9,3-1.2c-2.9-2.3-8.7-3.5-12.3-3.5    c-5.6,0-9.6,2.4-9.6,2.4s-0.5,0.1-1,0.4C53.4,125.4,62.3,127.3,69.8,125.1z" fill="#EC5A4F"></path>
		<path d="M52.6,94.3c-13.9-0.7-23,1.3-28.6,3.5c-6.2,2.5-10.9,6.4-11.1,9.1c0,0.4-0.1,1.6,2.2,2.9    c6.4,3.4,25.4,1.8,34.5-6.1c1.7-1.5,2.9-3.1,3.6-4.6C53.7,97.3,53.6,95.7,52.6,94.3z M13.8,112.2c-3.2-1.7-3.7-3.9-3.6-5.4    c0.3-4.8,7.1-9.2,12.8-11.5c5.2-2.1,13.2-4,24.9-3.9c-1.5-0.5-3.2-0.8-5.3-1.1c-12.3-1.4-21.4,2.4-27.5,6.7    c-3.4,3.1-5.1,5.9-5.1,5.9c-0.4,0.6-1.2,0.9-1.9,0.5c0,0-0.1-0.1-0.1-0.1c-1.8,2-2.6,3.4-2.6,3.4c-5.2,7.6,4,14.8,20.8,11.2    c4.9-1.1,10.5-3.6,15.4-6.8C31.7,114.9,19.6,115.3,13.8,112.2z" fill="#97A822"></path>
		<path d="M131,58c-1,4.9-4.2,19.4-6.4,29.1c2.4-2.3,4.6-5.2,6.6-8.6c5.4-9.4,6.2-19.9,2.1-29.7    c-4.4-10.6-13.7-18.6-25-21.4C90.2,22.7,71,29.3,54,46c21.7-1.1,51.5-2.2,56.2-2.2c4.2,0,6.9,0.9,8.5,2.9c0.1,0.2,0.2,0.3,0.3,0.5    c1.5,0,2.5,0,2.8,0C125.4,47.2,132.6,50.4,131,58z M71.7,48c15.3-0.3,33.5-0.5,43.3-0.7c-1.1-0.5-2.7-0.7-4.8-0.7    C106.1,46.5,88.9,47.2,71.7,48z M101,18c-33.1-2.5-48.4,20-48.4,20l-5.7,8.4c1-0.1,2.1-0.1,3.1-0.2c0,0,0-0.1,0.1-0.1    c24.4-25.5,47.4-24.4,59-21.4c12,3.1,22,11.7,26.8,23c4.4,10.6,3.6,22-2.2,32.1c-2.9,5-6.3,8.8-9.9,11.7c-0.6,2.9-1.1,4.8-1.1,4.8    c8.8-3.6,18.8-12.4,21.2-30C146.2,48.8,137.4,20.8,101,18z" fill="#FFB602"></path>
		<path d="M104.1,114c0.4-1.3,1.7-7.4,3.4-15.2c-11.9,2.3-25.1-0.1-37.5-2.4c-3.2-0.6-6.2-1-9-1.4    c0.5,8.1-6.8,12.1-6.8,12.1s5,2,11.7,4.6c14.7,3.3,30,6.7,32.1,6.9C101.1,119,103,117.5,104.1,114z M60.2,91.2    c0.1,0.4,0.2,0.7,0.3,1.1c3.1,0.4,6.5,0.8,10,1.5c12.9,2.3,26.1,4.7,37.6,2.2c1.2-5.8,2.6-12.3,3.9-18.2l4.9-23    c0.2-0.9,0.3-1.7,0.4-2.5c-16.2-0.1-77.5-0.4-81.5,0c-4.4,0.4-6,2.4-5.6,6.4c0.4,4,2.8,24.8,2.8,24.8l2-2.8    C35,80.8,56.6,80.8,60.2,91.2z M106.7,114.8c-1.8,6-5.9,6.9-9,6.6c-1.3-0.1-7.3-1.4-14.7-3c8.9,3.4,16.8,6.3,18.1,6.4    c3.2,0.4,8.4-1.2,10-6.8c0.6-2.3,3.3-11.8,6.3-22.4c-2.2,1.1-4.5,1.9-6.9,2.5C108.6,106.7,107.1,113.4,106.7,114.8z M120.6,52.4    c-0.2,0-0.4,0-0.6,0c-0.1,0.9-0.2,2-0.5,3.1l-4.9,22.9c-1.2,5.6-2.4,11.5-3.6,16.8c2.5-0.8,5-1.8,7.3-3.2    c4.1-14.6,8.4-30.1,8.7-31.2C127.4,58.8,127.8,52.4,120.6,52.4z" fill="#00A9DE"></path>
		<path d="M135.8,47.8c-4.7-11.3-14.8-19.9-26.8-23c-11.5-3-34.5-4.1-59,21.4c0,0,0,0.1-0.1,0.1    c-1.1,0.1-2.1,0.1-3.1,0.2c-8.1,0.4-14.1,0.8-15.7,1c-3.1,0.4-5.4,1.6-6.8,3.5c-1.5,2.1-1.9,4.8-1.2,8.5c1.1,6,4.1,25.6,4.4,27.4    c-13.6,4-19.7,14.2-20,14.8c-0.4,0.6-0.2,1.4,0.4,1.8c0,0,0.1,0.1,0.1,0.1c0.6,0.4,1.5,0.2,1.9-0.5c0-0.1,1.7-2.8,5.1-5.9    c4.3-3.9,11.3-8.4,21.4-9c7.1-0.4,12.5,0.8,15.3,3.5c-1.4-0.1-2.7-0.1-3.9-0.1c-11.7-0.1-19.7,1.8-24.9,3.9    c-5.7,2.3-12.5,6.7-12.8,11.5c-0.1,1.5,0.5,3.7,3.6,5.4c5.8,3.1,17.9,2.7,27.8-1c1.3-0.5,2.7-1.1,3.9-1.7c0.2,0.3,0.5,0.5,0.8,0.6    c1.3,0.3,21.9,5,36.7,8.2c7.4,1.6,13.4,2.9,14.7,3c3.1,0.3,7.2-0.6,9-6.6c0.4-1.4,1.9-8.1,3.7-16.6c2.4-0.6,4.7-1.5,6.9-2.5    c2.2-1.1,4.3-2.4,6.3-4c3.7-2.9,7-6.7,9.9-11.7C139.5,69.8,140.3,58.4,135.8,47.8z M15.1,109.8c-2.3-1.3-2.2-2.5-2.2-2.9    c0.2-2.7,4.9-6.6,11.1-9.1c5.6-2.2,14.7-4.3,28.6-3.5c0.3,0,0.6,0,1,0c0.2,0.5,0.3,1.1,0.3,1.7c0,1-0.2,2-0.7,3    c-0.7,1.6-1.9,3.2-3.6,4.6C40.5,111.6,21.5,113.3,15.1,109.8z M104.1,114c-1.1,3.5-3,5-6.2,4.6c-2.1-0.2-17.4-3.6-32.1-6.9    c-6.2-1.4-12.4-2.8-17.4-3.9c1-0.7,2-1.4,2.9-2.1c3.4-3,5.2-6.4,5.2-9.7c0-0.5-0.2-1-0.3-1.5c1.5,0.1,3.1,0.3,4.7,0.5    c2.8,0.3,5.8,0.8,9,1.4c12.3,2.2,25.6,4.6,37.5,2.4C105.8,106.6,104.5,112.7,104.1,114z M108.1,96c-11.5,2.5-24.7,0.1-37.6-2.2    c-3.6-0.6-6.9-1.1-10-1.5c-1.8-0.2-3.5-0.4-5.1-0.5c-2.7-4.7-9.5-7.1-19.1-6.5c-2.1,0.1-4.1,0.4-6,0.8c-0.4-3-3.2-21.4-4.3-27.3    c-0.5-2.8-0.3-5,0.7-6.4c0.9-1.3,2.5-2.1,4.9-2.4c2.8-0.4,21.5-1.3,40.1-2.2c17.3-0.8,34.4-1.4,38.5-1.4c2,0,3.6,0.2,4.8,0.7    c0.7,0.3,1.2,0.7,1.6,1.1c0.7,0.9,0.9,2.2,0.8,4c-0.1,0.7-0.2,1.6-0.4,2.5l-4.9,23C110.7,83.7,109.4,90.2,108.1,96z M131.2,78.5    c-2,3.4-4.2,6.3-6.6,8.6c-2,2-4.1,3.6-6.3,4.9c-2.3,1.4-4.8,2.4-7.3,3.2c1.1-5.4,2.4-11.2,3.6-16.8l4.9-22.9    c0.3-1.1,0.4-2.2,0.5-3.1c0.2-2.1-0.2-3.8-1-5.2c-0.1-0.2-0.2-0.3-0.3-0.5c-1.5-1.9-4.3-2.9-8.5-2.9c-4.6,0-34.4,1.2-56.2,2.2    C71,29.3,90.2,22.7,108.4,27.4c11.2,2.9,20.5,10.9,25,21.4C137.4,58.6,136.7,69.2,131.2,78.5z M69.9,117.4L69.9,117.4    c-0.5-0.2-13.3-4.6-21.4,0.5c-3.3,2-2.7,4.3-2.3,5.1c0.4,1,1.4,1.9,2.6,2.6c4.8,3,14.6,4.2,21.8,2.1c1.3-0.4,2.7-0.9,3.9-1.6    c1.1-0.7,1.9-1.7,2-2.9C76.6,120.1,71.5,118,69.9,117.4z M73.7,123.1c0,0-0.1,0.3-0.9,0.8c-0.6,0.3-1.5,0.8-3,1.2    c-7.5,2.2-16.4,0.3-19.8-1.9c-0.7-0.4-1.2-0.9-1.3-1.3c-0.2-0.5,0.2-1.1,1.2-1.7c7.1-4.4,18.9-0.3,19.1-0.2    C71.6,121,73.7,122.5,73.7,123.1L73.7,123.1z" fill="#3B3A3C"></path>
	</g>
	<ellipse ry="1.6" rx="2.9" cy="55.9" cx="111.9" fill="#FFFFFF"></ellipse>
	<ellipse ry="1.7" rx="2.9" cy="97.2" cx="47.4" fill="#FFFFFF"></ellipse>
	<ellipse ry="0.7" rx="1.2" cy="121.9" cx="62.1" fill="#FFFFFF"></ellipse>
	<ellipse ry="1.6" rx="2.9" cy="29.5" cx="94.3" fill="#FFFFFF"></ellipse>
</g>

    </g>
</g><g id="logo__item--tagline_1" class="logo__item">
    <g class="logo__item__inner" transform="translate(25 188.5) scale(1.2520325203252034 1.2520325203252034) rotate(0 0 0)">
        <text dy="" dominant-baseline="auto" alignment-baseline="auto" font-family="'Varela'" font-size="18px" fill="#000000" letter-spacing="0" font-weight="normal" font-style="normal">zeitgemäß lehren und lernen</text>
    </g>
</g></svg>
